<svg xmlns="http://www.w3.org/2000/svg" width="320" height="320" viewBox="0 0 320 320">
  <defs>
    <style>
      .s { stroke:#cbd5e1; stroke-width:1; opacity:.25 }
      .f { fill:#e2e8f0; opacity:.18 }
    </style>
  </defs>
  <rect width="320" height="320" fill="none"/>
  <!-- grid -->
  <path class="s" d="M0 40H320M0 80H320M0 120H320M0 160H320M0 200H320M0 240H320M0 280H320"/>
  <path class="s" d="M40 0V320M80 0V320M120 0V320M160 0V320M200 0V320M240 0V320M280 0V320"/>
  <!-- angle brackets -->
  <polygon class="f" points="90,155 110,140 110,150 130,130 130,160 110,140 110,150"/>
  <polygon class="f" points="230,165 210,180 210,170 190,190 190,160 210,180 210,170"/>
  <!-- braces -->
  <path class="s" d="M36 120c12 0 12-12 12-20s0-20 12-20M36 200c12 0 12 12 12 20s0 20 12 20"/>
  <!-- circles as dots -->
  <circle cx="280" cy="40" r="3" class="f"/>
  <circle cx="40" cy="280" r="3" class="f"/>
</svg>
